<?xml version="1.0" encoding="UTF-8"?>
<svg xmlns="http://www.w3.org/2000/svg" viewBox="0 0 466.91 466.59">
  <defs>
    <style>
      .cls-1 {
        fill: #93bde2;
      }

      .cls-1, .cls-2, .cls-3 {
        stroke-width: 0px;
      }

      .cls-4 {
        fill: #93b3e2;
      }

      .cls-4, .cls-5, .cls-6, .cls-7, .cls-8, .cls-9 {
        stroke: #263238;
        stroke-linecap: round;
        stroke-linejoin: round;
      }

      .cls-5 {
        fill: #93b1e2;
      }

      .cls-2 {
        opacity: .36;
      }

      .cls-2, .cls-6, .cls-3 {
        fill: #fff;
      }

      .cls-3 {
        opacity: .7;
      }

      .cls-7 {
        fill: #93afe2;
      }

      .cls-8 {
        fill: none;
      }

      .cls-9 {
        fill: #263238;
      }
    </style>
  </defs>
  <g id="Background_Simple">
    <g>
      <path class="cls-1" d="M442.06,320.96c34.02-80.54,38.32-194.37-20.31-265.08C389.42,16.89,338.54,3.92,289.96,1.02c-43.53-2.6-90.12-1.56-129.67,19.04-67.04,34.92-68.69,117.94-118.9,166.93C.9,226.49-15.88,282.77,18.68,356.83c34.56,74.06,98.74,90.84,161.94,67.15,63.2-23.7,91.83-28.64,167.87-16.79,34.95,5.45,60.3-20.78,75.63-49.03,6.57-12.11,12.6-24.53,17.95-37.2Z"/>
      <path class="cls-3" d="M442.06,320.96c34.02-80.54,38.32-194.37-20.31-265.08C389.42,16.89,338.54,3.92,289.96,1.02c-43.53-2.6-90.12-1.56-129.67,19.04-67.04,34.92-68.69,117.94-118.9,166.93C.9,226.49-15.88,282.77,18.68,356.83c34.56,74.06,98.74,90.84,161.94,67.15,63.2-23.7,91.83-28.64,167.87-16.79,34.95,5.45,60.3-20.78,75.63-49.03,6.57-12.11,12.6-24.53,17.95-37.2Z"/>
    </g>
  </g>
  <g id="Clouds">
    <g>
      <path class="cls-8" d="M127.1,135.51c-5.68-5.88-13.39-11.46-21.48-10.31-16.18,2.31-16.95,16.18-24.66,20.8-7.71,4.62-16.18-6.16-26.2-.77-10.02,5.39-9.25,12.33-14.64,12.33s-10.79-4.62-16.95-3.08c-6.16,1.54-11.56,8.48-11.56,8.48h158.73s-.77-12.33-10.79-19.26c-10.02-6.93-14.64,4.62-23.12,3.85,0,0-1.92-3.23-5.14-7.25"/>
      <path class="cls-8" d="M373.32,43.66c-2.19,2.94-3.6,6.11-6.22,7.68-5.14,3.08-10.79-4.11-17.47-.51-6.68,3.6-6.16,8.22-9.76,8.22s-7.19-3.08-11.3-2.05c-4.11,1.03-7.71,5.65-7.71,5.65h105.83s-.51-8.22-7.19-12.84-9.76,3.08-15.41,2.57c0,0-9.76-16.44-20.55-14.9-2.65.38-4.67,1.22-6.3,2.32"/>
      <path class="cls-8" d="M432.21,257.4c-2.8-1.82-5.91-2.95-9.12-2.49-10.79,1.54-11.3,10.79-16.44,13.87-5.14,3.08-10.79-4.11-17.47-.51-6.68,3.6-6.16,8.22-9.76,8.22s-7.19-3.08-11.3-2.05c-4.11,1.03-7.71,5.65-7.71,5.65h105.83s-.51-8.22-7.19-12.84c-6.68-4.62-9.76,3.08-15.41,2.57,0,0-2.71-4.57-6.85-8.66"/>
    </g>
  </g>
  <g id="Light_Bulbs">
    <g>
      <g>
        <path class="cls-6" d="M219.24,188.05s1.29-12.01-9.92-22.4c-6.55-6.07-23.11-18.47-25.72-16.86s3.46,10.48,3.46,10.48c0,0-6.6-1.93-4.33,4.17s10.33,12.84,10.33,12.84c0,0-11.59-1.26-9.07,3.8s11.33,8.62,11.33,8.62c0,0-3.9,3.91-1.85,6.25,2.05,2.34,11.09,3.37,11.09,3.37,0,0-4.97,2.17-.3,4.39,4.67,2.22,16.22.5,14.98-14.65Z"/>
        <path class="cls-6" d="M198.22,167.08c3.68,2.09,10.37,6.51,13.19,12.21,3.99,8.07,3.68,11.44,3.3,13.07"/>
        <path class="cls-6" d="M195.69,165.74s.51.24,1.35.69"/>
        <path class="cls-6" d="M203.7,185.57c2.37.58,4.56.83,4.56.83,0,0-5.25,2.44-3.48,4.34,1.76,1.89,6.96-.32,6.96-.32"/>
        <path class="cls-6" d="M204.64,171.54s-7.75-2.57-6.48,1.42c1.27,3.99,7.04,6.58,7.04,6.58,0,0-8.86,1.1-6.97,3.51.61.77,1.86,1.4,3.27,1.89"/>
      </g>
      <g>
        <path class="cls-6" d="M259.71,190.09s-4.57-11.18,3.33-24.28c4.61-7.64,17.09-24.15,20.04-23.32,2.95.82-.42,11.02-.42,11.02,0,0,5.8-3.69,5.32,2.81-.49,6.5-6.37,15.2-6.37,15.2,0,0,10.78-4.42,9.77,1.13-1.02,5.55-8.49,11.42-8.49,11.42,0,0,4.83,2.67,3.51,5.49-1.32,2.82-9.72,6.31-9.72,6.31,0,0,5.37.7,1.5,4.13-3.88,3.43-15.45,4.97-18.45-9.93Z"/>
        <path class="cls-6" d="M274.09,164.11c-2.95,3.03-8.16,9.12-9.29,15.39-1.6,8.86-.37,12.01.45,13.47"/>
        <path class="cls-6" d="M276.15,162.12s-.42.37-1.11,1.04"/>
        <path class="cls-6" d="M273.96,183.4c-2.12,1.21-4.15,2.06-4.15,2.06,0,0,5.72.89,4.55,3.2-1.17,2.31-6.77,1.62-6.77,1.62"/>
        <path class="cls-6" d="M269.16,170.18s6.73-4.62,6.62-.44-4.94,8.28-4.94,8.28c0,0,8.82-1.4,7.67,1.44-.37.91-1.4,1.86-2.62,2.72"/>
      </g>
      <g>
        <path class="cls-4" d="M227.43,208.68c-.05,1.52-.08,2.77.91,3.95l29.4-3.18c1.06-1.87.56-4.01.2-6.53-.65-4.64.21-9.37,2.1-13.61,1.59-3.56,4.09-6.84,5.33-10.52,1.24-3.67,1.47-7.71,1.05-11.56-1.71-15.81-15.58-27.27-30.98-25.61s-26.49,15.84-24.78,31.64c.52,4.8,2.21,9.51,4.96,13.45,4.56,6.55,12.12,13.13,11.8,21.96Z"/>
        <circle class="cls-2" cx="238.91" cy="169.77" r="19.08" transform="translate(-46.29 102.26) rotate(-22.08)"/>
        <circle class="cls-2" cx="238.91" cy="169.77" r="9.48" transform="translate(-53.8 154.86) rotate(-32.48)"/>
        <path class="cls-9" d="M252.72,235.24l-13.88,1.19c-7.26.79-8.59-4.92-9.37-12.18l-1.13-11.62,29.4-3.18,1.13,11.62c.79,7.26,1.11,13.39-6.15,14.18Z"/>
      </g>
    </g>
    <g>
      <g>
        <path class="cls-6" d="M235.72,68.97s-10.66,2.73-15.94,15.61c-3.09,7.52-8.38,25.6-6.18,27.32,2.21,1.71,7.83-6.29,7.83-6.29,0,0,.46,6.24,4.94,2.36,4.49-3.88,7.66-12.91,7.66-12.91,0,0,2.62,10.28,6.13,6.52,3.51-3.76,3.74-12.41,3.74-12.41,0,0,4.57,2.08,5.92-.41s-.66-10.53-.66-10.53c0,0,3.43,3.55,3.84-1.15.4-4.69-4.75-14-17.28-8.1Z"/>
        <path class="cls-6" d="M224.53,93.59c.61-3.8,2.24-10.92,6.21-15.14,5.61-5.98,8.58-6.79,10.1-6.98"/>
        <path class="cls-6" d="M224.2,96.18s.04-.51.16-1.37"/>
        <path class="cls-6" d="M238.56,83.03c-.26-2.21-.74-4.15-.74-4.15,0,0,3.76,3.7,4.81,1.59,1.05-2.11-2.49-5.83-2.49-5.83"/>
        <path class="cls-6" d="M226.29,86.69s.28,7.43,3.27,5.07,3.37-8.11,3.37-8.11c0,0,3.76,7.21,5.22,4.83.47-.76.6-2.03.57-3.39"/>
      </g>
      <g>
        <path class="cls-6" d="M275.47,57.87s8.42-7.08,21.97-3.88c7.91,1.87,25.7,8.09,25.81,10.88.11,2.79-9.68,2.7-9.68,2.7,0,0,4.81,4.01-.96,5.39s-14.95-1.28-14.95-1.28c0,0,6.84,8.12,1.74,8.78-5.1.66-12.27-4.18-12.27-4.18,0,0-.97,4.93-3.78,4.57-2.81-.36-8.18-6.67-8.18-6.67,0,0,.89,4.86-3.17,2.45-4.05-2.4-8.62-12.01,3.46-18.77Z"/>
        <path class="cls-6" d="M302.01,63.1c-3.45-1.72-10.18-4.53-15.93-3.76-8.13,1.09-10.52,3.03-11.55,4.15"/>
        <path class="cls-6" d="M304.3,64.33s-.44-.26-1.21-.67"/>
        <path class="cls-6" d="M285.25,68.36c-1.64-1.5-2.94-3.02-2.94-3.02,0,0,.82,5.21-1.51,4.84-2.33-.37-3.29-5.42-3.29-5.42"/>
        <path class="cls-6" d="M295.37,60.52s5.88,4.55,2.22,5.62c-3.66,1.07-8.55-1.98-8.55-1.98,0,0,3.67,7.26.89,7.05-.89-.06-2-.69-3.09-1.52"/>
      </g>
      <g>
        <path class="cls-5" d="M252.06,88.93c.3,1.35.57,2.46,1.71,3.27l25.17-9.57c.5-1.9-.43-3.66-1.33-5.8-1.64-3.94-1.97-8.3-1.28-12.47.58-3.5,2.03-6.97,2.28-10.49.25-3.52-.48-7.13-1.74-10.43-5.15-13.53-20.01-20.44-33.19-15.43-13.18,5.01-19.69,20.05-14.54,33.59,1.56,4.11,4.14,7.87,7.47,10.71,5.53,4.72,13.7,8.77,15.46,16.63Z"/>
        <path class="cls-2" d="M238.78,61.68c5.35,7.97,16.14,10.09,24.11,4.75,7.97-5.35,10.09-16.14,4.75-24.11-5.35-7.97-16.14-10.09-24.11-4.75s-10.09,16.14-4.75,24.11Z"/>
        <path class="cls-2" d="M246.04,56.8c2.66,3.96,8.02,5.01,11.98,2.36,3.96-2.66,5.01-8.02,2.36-11.98-2.66-3.96-8.02-5.01-11.98-2.36-3.96,2.66-5.01,8.02-2.36,11.98Z"/>
        <path class="cls-9" d="M280.45,106.5l-11.95,4.24c-6.22,2.37-8.7-2.36-11.06-8.57l-3.67-9.97,25.17-9.58,3.67,9.97c2.37,6.22,4.06,11.54-2.16,13.91Z"/>
      </g>
    </g>
    <g>
      <g>
        <path class="cls-6" d="M119.57,70.41s-8.6-2.34-17.49,4.62c-5.19,4.07-16.15,14.69-15.28,16.78s8.04-1.3,8.04-1.3c0,0-2.18,4.58,2.54,3.64s10.57-6.03,10.57-6.03c0,0-2.27,8.3,1.71,7.05s7.61-7.25,7.61-7.25c0,0,2.39,3.29,4.34,2.08,1.94-1.22,3.75-7.69,3.75-7.69,0,0,1,3.87,3.16.73,2.16-3.15,2.25-11.77-8.94-12.63Z"/>
        <path class="cls-6" d="M101.83,83.29c1.96-2.44,5.95-6.8,10.44-8.19,6.35-1.97,8.77-1.35,9.91-.88"/>
        <path class="cls-6" d="M100.56,84.97s.23-.34.66-.91"/>
        <path class="cls-6" d="M115.95,81.45c.7-1.66,1.14-3.22,1.14-3.22,0,0,1.17,4.11,2.76,3.04,1.58-1.07.58-5.11.58-5.11"/>
        <path class="cls-6" d="M105.84,79.13s-2.78,5.35.28,4.89,5.62-4.37,5.62-4.37c0,0-.23,6.59,1.75,5.49.64-.35,1.24-1.19,1.76-2.17"/>
      </g>
      <g>
        <path class="cls-6" d="M139.64,48.36s-5.73-6.83-3.13-17.82c1.52-6.41,6.58-20.82,8.84-20.91,2.26-.09,2.18,7.85,2.18,7.85,0,0,3.25-3.9,4.37.78,1.12,4.68-1.05,12.12-1.05,12.12,0,0,6.59-5.53,7.12-1.4.53,4.13-3.4,9.94-3.4,9.94,0,0,3.99.79,3.7,3.07-.29,2.28-5.41,6.62-5.41,6.62,0,0,3.94-.71,1.98,2.57-1.95,3.28-9.74,6.97-15.21-2.82Z"/>
        <path class="cls-6" d="M143.91,26.86c-1.39,2.8-3.68,8.25-3.06,12.91.87,6.59,2.45,8.53,3.35,9.37"/>
        <path class="cls-6" d="M144.91,25s-.21.36-.55.98"/>
        <path class="cls-6" d="M148.16,40.45c-1.21,1.33-2.45,2.38-2.45,2.38,0,0,4.22-.66,3.92,1.23-.3,1.89-4.4,2.66-4.4,2.66"/>
        <path class="cls-6" d="M141.81,32.24s3.69-4.76,4.55-1.8c.86,2.97-1.61,6.93-1.61,6.93,0,0,5.88-2.97,5.72-.72-.05.72-.56,1.62-1.23,2.5"/>
      </g>
      <g>
        <path class="cls-7" d="M136.77,77.35c.81.78,1.49,1.4,2.63,1.43l12.65-17.79c-.51-1.5-1.94-2.28-3.51-3.31-2.88-1.92-5.06-4.71-6.48-7.83-1.19-2.62-1.77-5.61-3.19-8.1-1.42-2.48-3.54-4.59-5.86-6.25-9.56-6.81-22.69-4.77-29.32,4.54-6.63,9.31-4.25,22.38,5.32,29.19,2.9,2.07,6.33,3.44,9.85,3.86,5.85.69,13.19-.25,17.91,4.25Z"/>
        <circle class="cls-2" cx="120.92" cy="51.94" r="14.09" transform="translate(2.66 109.68) rotate(-49.27)"/>
        <path class="cls-2" d="M118.26,58.41c3.57,1.47,7.66-.23,9.13-3.8s-.23-7.66-3.8-9.13c-3.57-1.47-7.66.23-9.13,3.8-1.47,3.57.23,7.66,3.8,9.13Z"/>
        <path class="cls-9" d="M163.83,76.42l-6.15,8.24c-3.13,4.39-6.92,2.33-11.32-.8l-6.96-5.07,12.66-17.79,6.96,5.07c4.39,3.13,7.93,5.95,4.81,10.35Z"/>
      </g>
    </g>
    <g>
      <g>
        <path class="cls-6" d="M337.82,149.26s-4.61-12.95-21.25-18.07c-9.71-2.98-32.83-7.51-34.71-4.57-1.88,2.94,8.73,9.03,8.73,9.03,0,0-7.72,1.28-2.38,6.42s16.94,8.06,16.94,8.06c0,0-12.5,4.44-7.42,8.37s15.88,3.24,15.88,3.24c0,0-2.06,5.93,1.19,7.32,3.25,1.39,13.03-2.03,13.03-2.03,0,0-4.02,4.68,1.87,4.64,5.89-.03,16.88-7.51,8.12-22.43Z"/>
        <path class="cls-6" d="M305.89,138.14c4.81.33,13.85,1.55,19.56,6,8.08,6.3,9.43,9.91,9.84,11.77"/>
        <path class="cls-6" d="M302.64,138.02s.64,0,1.73.04"/>
        <path class="cls-6" d="M320.65,154.4c2.72-.58,5.08-1.4,5.08-1.4,0,0-4.17,5.1-1.43,6.17,2.74,1.07,6.98-3.77,6.98-3.77"/>
        <path class="cls-6" d="M314.68,139.55s-9.21,1.19-5.94,4.65c3.27,3.46,10.48,3.27,10.48,3.27,0,0-8.54,5.51-5.42,7.05,1,.49,2.59.52,4.29.32"/>
      </g>
      <g>
        <path class="cls-6" d="M383.4,155.26s3.6-13.27,19.8-19.64c9.45-3.72,32.15-10.01,34.25-7.22,2.1,2.79-8.01,9.67-8.01,9.67,0,0,7.8.68,2.86,6.22-4.93,5.54-16.27,9.34-16.27,9.34,0,0,12.81,3.47,8.04,7.78-4.76,4.31-15.58,4.45-15.58,4.45,0,0,2.51,5.75-.63,7.39-3.14,1.63-13.15-1.02-13.15-1.02,0,0,4.37,4.35-1.5,4.77-5.88.42-17.41-6.19-9.82-21.74Z"/>
        <path class="cls-6" d="M414.37,141.72c-4.77.7-13.69,2.6-19.04,7.49-7.57,6.91-8.64,10.6-8.91,12.49"/>
        <path class="cls-6" d="M417.61,141.35s-.64.04-1.72.17"/>
        <path class="cls-6" d="M400.91,159.07c-2.75-.37-5.18-1-5.18-1,0,0,4.55,4.77,1.9,6.04-2.65,1.28-7.24-3.22-7.24-3.22"/>
        <path class="cls-6" d="M405.71,143.8s9.28.48,6.28,4.18c-3,3.7-10.19,4.06-10.19,4.06,0,0,8.94,4.83,5.94,6.61-.96.57-2.55.71-4.25.64"/>
      </g>
      <g>
        <path class="cls-4" d="M344.17,177.15c-.27,1.71-.46,3.12.5,4.59l33.66.36c1.45-1.97,1.17-4.46,1.11-7.36-.11-5.34,1.5-10.56,4.21-15.1,2.27-3.81,5.54-7.18,7.44-11.17,1.89-3.98,2.7-8.52,2.74-12.92.19-18.1-13.94-32.93-31.57-33.11-17.63-.19-32.07,14.33-32.27,32.43-.06,5.49,1.22,11.04,3.79,15.87,4.28,8.02,11.93,16.47,10.38,26.42Z"/>
        <circle class="cls-2" cx="362.38" cy="134.71" r="21.72" transform="translate(186.71 479.1) rotate(-83.37)"/>
        <path class="cls-2" d="M351.85,137.03c1.28,5.82,7.04,9.5,12.86,8.21s9.5-7.04,8.21-12.86c-1.28-5.82-7.04-9.5-12.86-8.21-5.82,1.28-9.5,7.04-8.21,12.86Z"/>
        <path class="cls-9" d="M369.17,210.57l-15.84-.52c-8.31-.09-9.04-6.72-8.95-15.03l.29-13.28,33.66.36-.29,13.28c-.09,8.31-.55,15.28-8.87,15.2Z"/>
      </g>
    </g>
  </g>
  <g id="Character">
    <g>
      <path class="cls-6" d="M234.97,466.09c1.11-7.25-.83-22.91-7.75-29.05-6.92-6.14-17.68-18.48-17.68-18.48,0,0-11.56,5.15-16.58,6.52-5.03,1.37-7.84,3.52-19.71.12-11.88-3.4-21.6-10.78-21.4-15.16s-2.53-22.91-4.68-32.51c-2.15-9.6-14.27-49.03-14.27-49.03,0,0-2.61-.52-8.68-4.12-6.07-3.59-11.42-7.38-12.07-12.61-.65-5.22,11.64-25.84,16.21-31.72s21.55-19.44,25.61-27.79-2.15-9.6-3.06-18.61c-.91-9.01,11.9-39.03,11.9-39.03l247.37,49.63s-17.07,58.02-26.03,75.58c-8.95,17.55-11.5,21.8-11.83,28.52s1.02,44,16.54,64.77"/>
      <path class="cls-8" d="M179.08,275.6s8.66,5.6,22.41,4.58"/>
      <polygon class="cls-9" points="209.54 418.55 250.74 401.02 223.56 433.25 209.54 418.55"/>
      <path class="cls-8" d="M134.59,321.7s7.12.07,9.46,1.9c2.35,1.83,4.24,4.25,7.96,2.62,3.72-1.63,8.49-5.09,6.6-9.2-1.89-4.11-4.89-6.07-4.89-6.07"/>
      <line class="cls-8" x1="183.33" y1="251.36" x2="178.36" y2="265.98"/>
      <path class="cls-9" d="M207.6,272.52s-29.11-5.5-34.2-7.2c-5.09-1.7-.26,3,1.3,3.66,1.57.65-5.09,0-1.11,2.15,3.98,2.16,25.46,5.11,34.01,1.39Z"/>
      <path class="cls-9" d="M166.38,225.89s6.52,6.4,12.07,7.51c5.55,1.11,17.1-2.34,22.06-1.68,4.96.66,10.57,1.44,15.08,2.69,4.5,1.24-2.23-5.29-9.87-7.84s-.7-.39-17.87-1.12c-17.17-.73-19.58-.53-21.48.44Z"/>
      <path class="cls-9" d="M274.64,275.11c2.67,3.59,11.03,7.64,11.62,6.4.59-1.24,12.65-17.45,19.99-21.79,11.56-6.85,26.96-7.49,34.99,1.59,8.02,9.08,7.56,23.24,3.7,34.01-3.86,10.77-5.95,21.21-5.95,21.21,0,0,10.5,10.25,13.9,13.65,3.39,3.4-6.72-3.72-5.16-1.37,1.57,2.35,12.53,12.02,22.97,15.81.62.22,1.32.21,2.1,0,1.08-5.13,4.13-10.62,11.37-24.81,8.95-17.55,26.03-75.58,26.03-75.58l-157.23-31.55c-3.2,4.81-9.46,14.66-9.02,17.54.59,3.85,17.29,17.05,22.9,21.23,5.61,4.18,12.2,6.86,9.79,7.06-2.42.19-4.11,1.89-3.4,3.39.72,1.5,4.63,9.08,4.63,9.08,0,0-5.88.52-3.2,4.11Z"/>
      <path class="cls-8" d="M156.64,355.86s14.29-.22,22.68-9.41"/>
      <path class="cls-8" d="M328.89,275.47s-5.74-5.23-16.84-.66-14.24,20.23-11.77,26.5"/>
      <path class="cls-8" d="M302.25,284.72s12.41-7.7,15.8.79c3.39,8.49-2.56,17.82-7.39,16.51"/>
      <path class="cls-8" d="M290.21,334.59s5.67,8.95,13.51,8.82,26.45-16.76,35.86-34.9"/>
    </g>
  </g>
</svg>